<svg width="512" height="512" viewBox="0 0 512 512" fill="none" xmlns="http://www.w3.org/2000/svg">
<g clip-path="url(#clip0_1_2)">
<path d="M0 256C0 114.615 114.615 0 256 0C397.385 0 512 114.615 512 256V512H256C114.615 512 0 397.385 0 256Z" fill="#FF77A1"/>
<path d="M256.2 420C208.2 420 170.2 407.867 142.2 383.6C114.467 359.067 100.6 324.533 100.6 280C100.6 252.8 105 228.933 113.8 208.4C122.867 187.867 135.533 171.467 151.8 159.2C184.067 134.933 226.6 122.8 279.4 122.8C313.533 122.8 347.667 127.467 381.8 136.8C394.867 141.067 401.4 151.6 401.4 168.4C401.4 191.333 394.2 202.8 379.8 202.8C377.4 202.8 369.533 201.733 356.2 199.6C342.867 197.467 333.533 196.4 328.2 196.4C309.267 196.4 294.6 203.067 284.2 216.4C274.067 229.467 269 245.2 269 263.6C269 281.733 273.8 297.733 283.4 311.6C293 325.467 306.067 332.667 322.6 333.2C333.8 333.733 353.667 334 382.2 334C396.067 334 403.667 340.533 405 353.6C405.8 358.4 406.2 363.333 406.2 368.4C406.2 373.2 405.8 378.133 405 383.2C403.4 392.8 395.933 399.867 382.6 404.4C369.267 408.667 350.067 412.267 325 415.2C299.933 418.4 277 420 256.2 420Z" fill="black"/>
</g>
<defs>
<clipPath id="clip0_1_2">
<rect width="512" height="512" fill="white"/>
</clipPath>
</defs>
</svg>
